<?xml version="1.0" encoding="utf-8"?>
<!-- Generator: Adobe Illustrator 16.0.0, SVG Export Plug-In . SVG Version: 6.00 Build 0)  -->
<!DOCTYPE svg PUBLIC "-//W3C//DTD SVG 1.1//EN" "http://www.w3.org/Graphics/SVG/1.1/DTD/svg11.dtd">
<svg version="1.1" id="Layer_1" xmlns="http://www.w3.org/2000/svg" xmlns:xlink="http://www.w3.org/1999/xlink" x="0px" y="0px"
	 width="185.701px" height="46.833px" viewBox="0 0 185.701 46.833" style="enable-background:new 0 0 185.701 46.833;"
	 xml:space="preserve">
<style type="text/css">
<![CDATA[
	.st0{fill:none;stroke:#000000;}
]]>
</style>
<g id="Woordbeeld_DEF">
	<path d="M18.09,19.207H2.612c-0.658,0-0.987,1.174-0.987,2.349s0.329,2.348,0.987,2.348h5.39v13.049
		c0,0.658,1.174,0.986,2.349,0.986c1.174,0,2.349-0.328,2.349-0.986V23.903h5.39c0.658,0,0.986-1.173,0.986-2.348
		S18.748,19.207,18.09,19.207z"/>
	<path d="M19.68,28.489c0-5.219,4.231-9.45,9.45-9.45c5.219,0,9.45,4.23,9.45,9.45c0,5.218-4.231,9.449-9.45,9.449
		C23.911,37.938,19.68,33.708,19.68,28.489z M29.129,33.241c2.625,0,4.753-2.127,4.753-4.752c0-2.625-2.128-4.753-4.753-4.753
		s-4.753,2.128-4.753,4.753C24.376,31.114,26.504,33.241,29.129,33.241z"/>
	<path d="M68.955,27.096c0-4.449-3.607-8.057-8.057-8.057c-2.231,0-4.249,0.908-5.708,2.373c-1.459-1.465-3.479-2.373-5.709-2.373
		c-4.45,0-8.058,3.607-8.058,8.057v9.856c0,0.658,1.174,0.986,2.349,0.986s2.348-0.328,2.348-0.986v-9.856
		c0-1.855,1.505-3.36,3.361-3.36c1.855,0,3.36,1.504,3.36,3.36l0,9.856c0,0.658,1.175,0.986,2.349,0.986
		c1.174,0,2.348-0.328,2.348-0.986v-9.856c0-1.855,1.505-3.36,3.361-3.36s3.36,1.504,3.36,3.36v9.856
		c0,0.658,1.174,0.986,2.349,0.986c1.174,0,2.348-0.328,2.348-0.986V27.096z"/>
	<path d="M137.433,27.096c0-4.449-3.607-8.057-8.057-8.057c-2.231,0-4.25,0.908-5.709,2.373c-1.458-1.465-3.478-2.373-5.709-2.373
		c-4.45,0-8.058,3.607-8.058,8.057v9.856c0,0.658,1.174,0.986,2.349,0.986s2.349-0.328,2.349-0.986v-9.856
		c0-1.855,1.504-3.36,3.36-3.36c1.856,0,3.36,1.504,3.36,3.36v9.856c0,0.658,1.174,0.986,2.349,0.986s2.349-0.328,2.349-0.986
		v-9.856c0-1.855,1.504-3.36,3.36-3.36s3.36,1.504,3.36,3.36v9.856c0,0.658,1.174,0.986,2.349,0.986s2.349-0.328,2.349-0.986V27.096
		z"/>
	<path d="M86.567,19.207H71.09c-0.658,0-0.987,1.174-0.987,2.349s0.329,2.348,0.987,2.348h5.39v13.049
		c0,0.658,1.174,0.986,2.348,0.986c1.174,0,2.349-0.328,2.349-0.986V23.903h5.391c0.658,0,0.987-1.173,0.987-2.348
		S87.225,19.207,86.567,19.207z"/>
	<path d="M88.158,28.489c0-5.219,4.231-9.45,9.449-9.45c5.219,0,9.45,4.23,9.45,9.45c0,5.218-4.23,9.449-9.45,9.449
		C92.389,37.938,88.158,33.708,88.158,28.489z M97.607,33.241c2.625,0,4.753-2.127,4.753-4.752c0-2.625-2.128-4.753-4.753-4.753
		s-4.752,2.128-4.752,4.753C92.855,31.114,94.982,33.241,97.607,33.241z"/>
	<path d="M136.426,17.107c0-1.61,1.306-2.915,2.915-2.915s2.915,1.305,2.915,2.915c0,1.609-1.306,2.915-2.915,2.915
		S136.426,18.717,136.426,17.107z M139.341,19.669c1.415,0,2.562-1.147,2.562-2.562s-1.147-2.562-2.562-2.562
		c-1.415,0-2.563,1.147-2.563,2.562S137.926,19.669,139.341,19.669z"/>
	<g>
		<g>
			<path d="M139.201,15.561c1.056,0,1.216,0.508,1.216,0.865c0,0.369-0.257,0.667-0.71,0.782l0.944,1.439h-0.419l-0.909-1.388
				h-0.584v1.388h-0.358v-3.086H139.201z M138.737,16.981h0.479c0.703,0,0.843-0.282,0.843-0.568c0-0.424-0.292-0.574-0.777-0.574
				h-0.545V16.981z"/>
		</g>
	</g>
</g>
<g id="Beeldmerk">
	<g id="Wereldbol">
		<g id="Rand">
			<path class="st0" d="M145.537,26.469c0,10.827,8.809,19.636,19.636,19.636s19.636-8.809,19.636-19.636
				c0-10.828-8.809-19.636-19.636-19.636S145.537,15.642,145.537,26.469z M145.875,26.469c0-10.641,8.657-19.298,19.298-19.298
				c10.642,0,19.299,8.657,19.299,19.298s-8.657,19.298-19.299,19.298C154.532,45.768,145.875,37.11,145.875,26.469z"/>
		</g>
	</g>
	<g id="Handen_1_">
		<g id="Handen">
			<path d="M171.173,35.856c-0.21-0.295-0.447-0.507-0.657-0.688c-0.519-0.413-1.521-0.598-2.486,0.239l-0.092,0.084
				c-1.353,1.241-3.616,3.319-5.421,2.896c-1.346-0.315-1.509-1.529-1.426-2.731c0.015-0.314,0.052-0.625,0.097-0.92
				c0.001-0.008,0.002-0.017,0.003-0.026c0,0.007-0.002,0.013-0.002,0.02c0.037-0.238,0.078-0.466,0.117-0.669
				c0.174-0.881,1.605-7.189,2.348-10.428c0.109-0.469,0.216-1.061,0.154-1.509c-0.094-0.693-0.644-0.931-1.394-1.121
				c-0.894-0.194-2.085,0.158-2.412,1.176c-0.355,1.188-0.751,2.814-1.725,7.698c-0.055,0.23-0.11,0.5-0.191,0.75
				c0.004-0.013,0.009-0.024,0.014-0.038c-0.166,0.521-0.332,1.043-1.035,0.905c-0.641-0.183-0.681-0.91-0.71-1.44
				c0,0-0.006-0.109-0.006-0.11l-0.045-1.217c-0.093-1.837-0.091-3.776,0.005-5.926l0.068-1.263l0.096-2.076
				c0.024-0.578-0.04-0.874-0.335-1.124c-0.279-0.236-0.732-0.288-1.287-0.19c-0.444,0.083-0.876,0.268-1.182,0.61
				c-0.28,0.337-0.396,0.764-0.437,1.194c-0.099,1.059-0.173,2.119-0.223,3.181c-0.098,2.126-0.104,4.254-0.028,6.382
				c0.007,0.155,0.01,0.297,0.011,0.431c0-0.009,0-0.017,0-0.026c0,0.015,0,0.026,0,0.042c0,0.001,0,0.003,0,0.005
				c0.013,1.069-0.139,1.432-0.723,1.462c-0.642,0.02-0.83-0.566-0.944-1.037c0,0-0.075-0.309-0.076-0.312
				c-0.25-1.247-0.467-2.5-0.643-3.724l-0.123-0.741c-0.209-1.266-0.348-2.102-0.478-3.227c-0.03-0.217-0.095-0.619-0.392-0.753
				c-0.149-0.067-0.421-0.13-0.881,0.121l0,0c-0.016,0.009-0.03,0.014-0.046,0.023c-0.69,0.446-1.014,1.07-1.008,1.882
				c0.024,0.958,0.102,2.098,0.211,3.05c0.255,2.213,0.524,3.655,0.908,5.43c0.011,0.054,0.022,0.11,0.033,0.168
				c0.093,0.515,0.073,0.885-0.147,1.05c-0.129,0.094-0.316,0.114-0.504,0.049c-0.373-0.128-0.716-0.789-0.86-1.114
				c0,0-0.031-0.071-0.032-0.073c-0.56-1.327-1.001-2.812-1.408-4.276l-0.029-0.102c0-0.001-0.084-0.289-0.32-0.335
				c-0.216-0.042-0.442-0.011-0.8,0.406c-0.498,0.622-0.097,2.144,0.072,3.002c0.864,4.405,4.391,11.292,10.907,13.899
				c5.023,2.009,8.142-0.545,14.462-6.091c0.512-0.449,1.1-1.187,1.254-1.89C171.49,36.493,171.441,36.232,171.173,35.856z"/>
			<path d="M184.84,19.463c-1.938-5.756-5.235-8.32-5.797-8.759c-0.197-0.154-1.27-1.015-1.892-1.167
				c-0.209-0.051-0.313-0.078-0.498-0.082c-0.011,0-0.021,0-0.034,0c-0.018,0-0.034,0-0.051,0c-0.103,0.003-0.226,0.019-0.296,0.075
				c-0.079,0.063-0.065,0.173-0.063,0.211c0.012,0.22,0.302,0.583,0.738,1.006c0.914,0.888,2.268,2.357,2.732,3.01
				c0.282,0.396,0.426,0.901-0.021,1.171c-0.099,0.052-0.288,0.125-0.561-0.022c-0.002-0.001-0.004-0.002-0.007-0.003
				c-0.004-0.003-0.008-0.004-0.012-0.006c0.002,0.001,0.004,0.001,0.006,0.002c-0.146-0.076-0.332-0.213-0.577-0.453
				c-1.375-1.342-4.576-4.098-6.534-5.402c-0.893-0.594-1.647-0.669-2.376-0.518c-0.047,0.011-0.086,0.027-0.128,0.042
				c-0.031,0.011-0.065,0.021-0.092,0.032c-0.052,0.023-0.098,0.051-0.141,0.08c-0.008,0.006-0.02,0.01-0.027,0.017
				c-0.023,0.017-0.04,0.036-0.06,0.054c-0.069,0.068-0.119,0.144-0.146,0.234c-0.041,0.136-0.033,0.409,0.228,0.64
				c0.86,0.765,5.062,4.453,5.779,5.266c0.679,0.769,0.691,1.188,0.427,1.457c-0.38,0.388-0.98,0.023-1.146-0.081
				c0.016,0.009,0.03,0.015,0.045,0.024c-0.143-0.086-0.305-0.2-0.492-0.353c-2.048-1.664-6.624-4.605-7.694-5.14
				c-1.173-0.587-1.595-0.775-2.643-0.211c-0.041,0.022-0.078,0.046-0.116,0.069c-0.424,0.279-0.577,0.537-0.614,0.827
				c-0.031,0.248,0.046,0.633,0.58,0.994c4.445,3.009,5.402,3.514,8.928,6.182c0.271,0.205,0.896,0.782,0.333,1.345
				c-0.103,0.103-0.296,0.172-0.565,0.146c-0.038-0.002-0.076-0.009-0.116-0.016c-0.021-0.003-0.039-0.005-0.061-0.009
				c0.019,0.004,0.034,0.004,0.053,0.007c-0.331-0.06-0.713-0.264-1.077-0.482c-1.933-1.156-5.297-2.897-7.074-3.578
				c-1.226-0.469-1.983,0.01-2.449,0.625c-0.354,0.496-0.451,1.085-0.36,1.463c0.113,0.471,0.585,0.769,0.902,0.957
				c2.499,1.453,4.43,2.306,6.887,3.827c0.777,0.472,0.908,0.538,1.665,1.041c0.867,0.583,2.198,1.427,2.525,2.52
				c-0.001-0.004-0.001-0.007-0.002-0.011c0.074,0.189,0.119,0.519,0.116,0.717c-0.007,0.498-0.148,0.989-0.828,1.453
				c-1.201,0.818-3.339,0.578-5.213,0.452c-0.396-0.027-1.077-0.074-1.485-0.076c-0.978-0.004-1.502,0.241-1.797,0.698
				c-0.265,0.412-0.29,1.127-0.29,1.482c0,0.034,0.01,0.201,0.032,0.359c0.03,0.225,0.105,0.36,0.147,0.421
				c0.008,0.01,0.017,0.024,0.024,0.033c0.441,0.563,1.31,0.74,2.289,0.853c1.745,0.102,3.583,0.135,5.71,0.177
				c4.981,0.098,10.631-0.209,12.846-3.237C186.095,27.645,185.989,22.811,184.84,19.463z"/>
		</g>
	</g>
</g>
<g>
	<path d="M32.375,46.711v-5.852h1.734c0.786,0,1.629,0.292,1.629,1.67c0,1.329-1.038,1.604-1.637,1.604h-0.98v2.578H32.375z
		 M33.121,43.485h0.818c0.308,0,1.038-0.081,1.038-0.997c0-0.892-0.665-0.981-0.827-0.981h-1.029V43.485z"/>
	<path d="M37.513,44.021v2.691h-0.746v-5.852h2.019c1.037,0,1.402,0.729,1.402,1.459c0,0.689-0.381,1.216-1.07,1.337v0.016
		c0.673,0.105,0.916,0.333,0.957,1.508c0.008,0.251,0.089,1.167,0.203,1.532h-0.778c-0.211-0.405-0.162-1.167-0.227-1.945
		c-0.057-0.713-0.632-0.746-0.883-0.746H37.513z M37.513,43.372h1.118c0.535,0,0.794-0.462,0.794-0.973
		c0-0.422-0.21-0.892-0.786-0.892h-1.126V43.372z"/>
	<path d="M41.265,44.571V42.65c0-1.167,0.6-1.913,1.84-1.913c1.24,0,1.84,0.746,1.84,1.913v1.921c0,1.621-0.6,2.262-1.84,2.262
		C41.865,46.833,41.265,46.192,41.265,44.571z M44.183,44.604v-1.978c0-1.224-0.843-1.265-1.078-1.265
		c-0.235,0-1.078,0.041-1.078,1.265v1.978c0,1.281,0.373,1.605,1.078,1.605S44.183,45.885,44.183,44.604z"/>
	<path d="M46.258,40.859h1.799c0.746,0,1.28,0.268,1.572,0.892c0.235,0.494,0.259,1.662,0.259,1.848
		c0,1.248-0.113,1.969-0.356,2.358c-0.316,0.502-0.908,0.754-1.929,0.754h-1.345V40.859z M47.003,46.063h0.705
		c1.038,0,1.418-0.389,1.418-1.751v-1.184c0-1.183-0.365-1.621-1.143-1.621h-0.98V46.063z"/>
	<path d="M51.169,40.859h0.746v3.745c0,1.281,0.389,1.605,1.094,1.605s1.094-0.324,1.094-1.605v-3.745h0.746v3.712
		c0,1.621-0.6,2.262-1.84,2.262c-1.24,0-1.84-0.641-1.84-2.262V40.859z"/>
	<path d="M58.723,42.472c0.008-0.332-0.016-0.665-0.17-0.851c-0.154-0.186-0.503-0.251-0.657-0.251
		c-0.616,0-0.859,0.373-0.884,0.454c-0.024,0.065-0.17,0.211-0.17,1.216v1.564c0,1.435,0.47,1.605,1.045,1.605
		c0.227,0,0.916-0.082,0.924-1.224h0.77c0.032,1.848-1.273,1.848-1.654,1.848c-0.729,0-1.848-0.049-1.848-2.318v-1.653
		c0-1.654,0.729-2.124,1.88-2.124c1.159,0,1.605,0.6,1.532,1.734H58.723z"/>
	<path d="M63.934,40.859v0.648h-1.54v5.204h-0.746v-5.204h-1.54v-0.648H63.934z"/>
	<path d="M66.503,46.711v-5.852h0.746v5.204h2.147v0.648H66.503z"/>
	<path d="M70.944,46.711h-0.746v-5.852h0.746V46.711z"/>
	<path d="M72.297,46.711v-5.852h2.902v0.648h-2.156v1.88h2.042v0.648h-2.042v2.675H72.297z"/>
	<path d="M75.952,46.711v-5.852h3.015v0.648h-2.269v1.88h2.107v0.648h-2.107v2.026h2.318v0.648H75.952z"/>
	<path d="M82.582,42.472c0.008-0.332-0.016-0.665-0.17-0.851c-0.154-0.186-0.502-0.251-0.656-0.251
		c-0.616,0-0.859,0.373-0.884,0.454c-0.024,0.065-0.17,0.211-0.17,1.216v1.564c0,1.435,0.47,1.605,1.045,1.605
		c0.227,0,0.916-0.082,0.924-1.224h0.77c0.032,1.848-1.273,1.848-1.654,1.848c-0.729,0-1.848-0.049-1.848-2.318v-1.653
		c0-1.654,0.729-2.124,1.881-2.124c1.159,0,1.605,0.6,1.532,1.734H82.582z"/>
	<path d="M87.08,40.859h0.754l-1.597,3.623v2.229h-0.746v-2.229l-1.573-3.623h0.835l1.143,2.829L87.08,40.859z"/>
	<path d="M91.141,42.472c0.008-0.332-0.016-0.665-0.17-0.851c-0.154-0.186-0.503-0.251-0.657-0.251
		c-0.616,0-0.859,0.373-0.884,0.454c-0.024,0.065-0.17,0.211-0.17,1.216v1.564c0,1.435,0.47,1.605,1.045,1.605
		c0.227,0,0.916-0.082,0.924-1.224H92c0.033,1.848-1.272,1.848-1.653,1.848c-0.729,0-1.848-0.049-1.848-2.318v-1.653
		c0-1.654,0.729-2.124,1.88-2.124c1.159,0,1.605,0.6,1.532,1.734H91.141z"/>
	<path d="M93.069,46.711v-5.852h0.746v5.204h2.147v0.648H93.069z"/>
	<path d="M96.667,46.711v-5.852h3.015v0.648h-2.27v1.88h2.107v0.648h-2.107v2.026h2.318v0.648H96.667z"/>
	<path d="M103.224,46.711h-0.697v-5.852h1.208l1.475,4.912h0.016l1.491-4.912h1.232v5.852h-0.746v-5.204h-0.016l-1.637,5.204h-0.705
		l-1.605-5.204h-0.016V46.711z"/>
	<path d="M110.591,40.859h0.948l1.905,5.852h-0.835l-0.421-1.394h-2.261l-0.438,1.394h-0.754L110.591,40.859z M111.045,41.548
		h-0.016l-0.916,3.12h1.872L111.045,41.548z"/>
	<path d="M118.274,40.859v5.852h-1.021l-2.311-5.074h-0.016v5.074h-0.664v-5.852h1.053l2.278,5.009h0.016v-5.009H118.274z"/>
	<path d="M120.949,40.859h0.948l1.905,5.852h-0.835l-0.421-1.394h-2.261l-0.438,1.394h-0.753L120.949,40.859z M121.402,41.548
		h-0.016l-0.916,3.12h1.872L121.402,41.548z"/>
	<path d="M127.384,42.424c0-0.689-0.284-1.062-1.038-1.062c-0.235,0-1.078,0.041-1.078,1.265v1.978c0,1.281,0.373,1.605,1.078,1.605
		c0.535,0,0.892-0.146,1.045-0.259v-1.751h-1.078V43.55h1.824v2.845c-0.478,0.26-1.038,0.438-1.792,0.438
		c-1.24,0-1.84-0.641-1.84-2.262V42.65c0-1.167,0.6-1.913,1.84-1.913c1.265,0,1.864,0.462,1.815,1.686H127.384z"/>
	<path d="M129.531,46.711v-5.852h3.015v0.648h-2.27v1.88h2.107v0.648h-2.107v2.026h2.318v0.648H129.531z"/>
	<path d="M134.313,44.021v2.691h-0.746v-5.852h2.018c1.038,0,1.402,0.729,1.402,1.459c0,0.689-0.381,1.216-1.07,1.337v0.016
		c0.672,0.105,0.916,0.333,0.957,1.508c0.008,0.251,0.089,1.167,0.203,1.532h-0.778c-0.211-0.405-0.162-1.167-0.227-1.945
		c-0.057-0.713-0.632-0.746-0.883-0.746H134.313z M134.313,43.372h1.119c0.535,0,0.794-0.462,0.794-0.973
		c0-0.422-0.21-0.892-0.786-0.892h-1.126V43.372z"/>
</g>
</svg>
