<?xml version="1.0" encoding="utf-8"?>
<!-- Generator: Adobe Illustrator 16.0.0, SVG Export Plug-In . SVG Version: 6.00 Build 0)  -->
<!DOCTYPE svg PUBLIC "-//W3C//DTD SVG 1.1//EN" "http://www.w3.org/Graphics/SVG/1.1/DTD/svg11.dtd">
<svg version="1.1" id="Layer_1" xmlns="http://www.w3.org/2000/svg" xmlns:xlink="http://www.w3.org/1999/xlink" x="0px" y="0px"
	 width="160px" height="40px" viewBox="-8.649 2.5 160 40" enable-background="new -8.649 2.5 160 40" xml:space="preserve">
<g id="Woordbeeld_DEF">
	<path d="M19.07,19.404h-11.7c-0.497,0-0.746,0.888-0.746,1.776s0.249,1.774,0.746,1.774h4.074v9.865
		c0,0.496,0.887,0.744,1.775,0.744s1.776-0.248,1.776-0.744v-9.866h4.074c0.498,0,0.746-0.887,0.746-1.774
		C19.816,20.291,19.568,19.404,19.07,19.404z"/>
	<path d="M20.272,26.42c0-3.944,3.199-7.143,7.143-7.143c3.945,0,7.144,3.197,7.144,7.143c0,3.944-3.198,7.144-7.144,7.144
		C23.471,33.564,20.272,30.365,20.272,26.42z M27.414,30.013c1.985,0,3.594-1.607,3.594-3.593c0-1.983-1.609-3.592-3.594-3.592
		c-1.984,0-3.592,1.609-3.592,3.592C23.823,28.406,25.43,30.013,27.414,30.013z"/>
	<path d="M57.519,25.368c0-3.363-2.727-6.09-6.09-6.09c-1.687,0-3.211,0.687-4.314,1.795c-1.103-1.108-2.63-1.795-4.315-1.795
		c-3.364,0-6.091,2.727-6.091,6.09v7.45c0,0.498,0.888,0.745,1.776,0.745s1.775-0.247,1.775-0.745v-7.45
		c0-1.401,1.137-2.54,2.541-2.54c1.402,0,2.54,1.138,2.54,2.54v7.45c0,0.498,0.889,0.745,1.776,0.745s1.775-0.247,1.775-0.745v-7.45
		c0-1.401,1.138-2.54,2.541-2.54c1.403,0,2.54,1.138,2.54,2.54v7.45c0,0.498,0.888,0.745,1.776,0.745
		c0.887,0,1.774-0.247,1.774-0.745L57.519,25.368L57.519,25.368z"/>
	<path d="M109.279,25.368c0-3.363-2.726-6.09-6.09-6.09c-1.686,0-3.212,0.687-4.315,1.795c-1.101-1.108-2.629-1.795-4.314-1.795
		c-3.363,0-6.092,2.727-6.092,6.09v7.45c0,0.498,0.888,0.745,1.774,0.745c0.889,0,1.777-0.247,1.777-0.745v-7.45
		c0-1.401,1.136-2.54,2.541-2.54c1.402,0,2.539,1.138,2.539,2.54v7.45c0,0.498,0.889,0.745,1.775,0.745
		c0.889,0,1.776-0.247,1.776-0.745v-7.45c0-1.401,1.137-2.54,2.539-2.54c1.404,0,2.54,1.138,2.54,2.54v7.45
		c0,0.498,0.889,0.745,1.775,0.745c0.889,0,1.776-0.247,1.776-0.745L109.279,25.368L109.279,25.368z"/>
	<path d="M70.831,19.404H59.132c-0.498,0-0.746,0.888-0.746,1.776s0.249,1.774,0.746,1.774h4.075v9.865
		c0,0.496,0.887,0.744,1.774,0.744c0.888,0,1.775-0.248,1.775-0.744v-9.866h4.075c0.498,0,0.747-0.887,0.747-1.774
		C71.579,20.291,71.329,19.404,70.831,19.404z"/>
	<path d="M72.034,26.42c0-3.944,3.199-7.143,7.143-7.143c3.946,0,7.144,3.197,7.144,7.143c0,3.944-3.197,7.144-7.144,7.144
		C75.233,33.563,72.034,30.365,72.034,26.42z M79.176,30.013c1.984,0,3.594-1.607,3.594-3.593c0-1.983-1.61-3.592-3.594-3.592
		c-1.985,0-3.592,1.609-3.592,3.592C75.585,28.406,77.192,30.013,79.176,30.013z"/>
	<path d="M108.519,17.817c0-1.217,0.987-2.204,2.205-2.204c1.216,0,2.203,0.986,2.203,2.204c0,1.216-0.986,2.203-2.203,2.203
		C109.506,20.02,108.519,19.034,108.519,17.817z M110.724,19.754c1.068,0,1.938-0.867,1.938-1.937c0-1.07-0.869-1.937-1.938-1.937
		c-1.069,0-1.938,0.867-1.938,1.937C108.785,18.887,109.652,19.754,110.724,19.754z"/>
	<g>
		<g>
			<path d="M110.616,16.649c0.799,0,0.92,0.384,0.92,0.653c0,0.279-0.195,0.504-0.537,0.591l0.713,1.088h-0.316l-0.688-1.049h-0.44
				v1.049h-0.271v-2.332H110.616z M110.267,17.721h0.362c0.531,0,0.637-0.212,0.637-0.429c0-0.32-0.222-0.434-0.587-0.434h-0.412
				V17.721L110.267,17.721z"/>
		</g>
	</g>
</g>
<g id="Beeldmerk">
	<g id="Wereldbol">
		<g id="Rand">
			<path fill="none" stroke="#000000" d="M115.406,26.676c0,8.184,6.659,14.843,14.842,14.843c8.185,0,14.844-6.659,14.844-14.843
				c0-8.186-6.659-14.843-14.844-14.843C122.065,11.833,115.406,18.491,115.406,26.676z M115.662,26.676
				c0-8.044,6.544-14.588,14.588-14.588c8.043,0,14.586,6.543,14.586,14.588c0,8.043-6.543,14.587-14.586,14.587
				C122.206,41.264,115.662,34.719,115.662,26.676z"/>
		</g>
	</g>
	<g id="Handen_1_">
		<g id="Handen">
			<path d="M134.785,33.77c-0.161-0.223-0.34-0.383-0.498-0.519c-0.392-0.313-1.148-0.454-1.88,0.18l-0.069,0.063
				c-1.022,0.939-2.732,2.51-4.098,2.189c-1.017-0.237-1.14-1.156-1.077-2.063c0.013-0.238,0.04-0.474,0.073-0.696
				c0-0.007,0.001-0.014,0.001-0.02c0,0.006-0.001,0.012-0.001,0.016c0.028-0.18,0.059-0.353,0.088-0.506
				c0.133-0.665,1.216-5.434,1.775-7.883c0.082-0.354,0.165-0.801,0.117-1.14c-0.072-0.524-0.487-0.704-1.054-0.847
				c-0.676-0.147-1.578,0.119-1.823,0.889c-0.269,0.897-0.568,2.127-1.305,5.819c-0.042,0.173-0.084,0.378-0.144,0.566
				c0.003-0.012,0.007-0.019,0.011-0.029c-0.126,0.394-0.252,0.788-0.782,0.687c-0.485-0.14-0.515-0.689-0.538-1.09
				c0,0-0.005-0.084-0.005-0.085l-0.033-0.919c-0.07-1.389-0.068-2.854,0.005-4.479l0.051-0.954l0.072-1.57
				c0.019-0.437-0.03-0.661-0.253-0.85c-0.211-0.178-0.553-0.218-0.974-0.144c-0.335,0.063-0.66,0.203-0.894,0.462
				c-0.211,0.254-0.299,0.577-0.33,0.902c-0.075,0.8-0.131,1.602-0.167,2.405c-0.075,1.606-0.079,3.216-0.021,4.824
				c0.006,0.118,0.009,0.225,0.009,0.325c0-0.007,0-0.012,0-0.019c0,0.012,0,0.019,0,0.031c0,0.002,0,0.003,0,0.005
				c0.009,0.808-0.106,1.081-0.547,1.105c-0.485,0.016-0.628-0.428-0.713-0.785c0,0-0.057-0.234-0.057-0.235
				c-0.189-0.944-0.354-1.89-0.486-2.815l-0.092-0.561c-0.16-0.957-0.265-1.588-0.362-2.439c-0.022-0.164-0.071-0.467-0.297-0.569
				c-0.112-0.051-0.317-0.098-0.665,0.092l0,0c-0.013,0.007-0.023,0.01-0.035,0.018c-0.522,0.338-0.767,0.809-0.761,1.422
				c0.018,0.725,0.077,1.586,0.159,2.307c0.193,1.671,0.396,2.762,0.687,4.103c0.008,0.041,0.018,0.083,0.024,0.128
				c0.069,0.39,0.057,0.669-0.11,0.794c-0.098,0.07-0.24,0.087-0.382,0.038c-0.281-0.098-0.541-0.597-0.649-0.844
				c0,0-0.024-0.053-0.024-0.055c-0.424-1.004-0.757-2.125-1.063-3.232l-0.021-0.078c0,0-0.063-0.218-0.242-0.253
				c-0.164-0.03-0.334-0.009-0.606,0.309c-0.375,0.47-0.072,1.619,0.055,2.27c0.653,3.327,3.32,8.533,8.246,10.506
				c3.797,1.519,6.154-0.413,10.933-4.604c0.386-0.339,0.83-0.897,0.947-1.429C135.023,34.252,134.986,34.056,134.785,33.77z"/>
			<path d="M145.115,21.379c-1.466-4.351-3.957-6.289-4.382-6.621c-0.149-0.117-0.96-0.768-1.431-0.882
				c-0.158-0.038-0.236-0.059-0.376-0.062c-0.009,0-0.017,0-0.025,0c-0.014,0-0.025,0-0.039,0c-0.078,0.001-0.17,0.015-0.225,0.057
				c-0.058,0.047-0.048,0.13-0.048,0.159c0.01,0.166,0.229,0.441,0.559,0.76c0.69,0.671,1.716,1.782,2.065,2.275
				c0.212,0.299,0.322,0.682-0.017,0.886c-0.074,0.039-0.217,0.095-0.425-0.016c-0.002,0-0.003-0.001-0.006-0.002
				c-0.002-0.002-0.006-0.003-0.009-0.005c0.001,0,0.003,0,0.005,0.001c-0.109-0.057-0.25-0.161-0.436-0.342
				c-1.039-1.015-3.46-3.097-4.938-4.083c-0.676-0.448-1.245-0.506-1.798-0.391c-0.035,0.008-0.064,0.02-0.095,0.032
				c-0.024,0.008-0.052,0.016-0.071,0.023c-0.039,0.019-0.073,0.039-0.106,0.061c-0.006,0.005-0.015,0.007-0.021,0.012
				c-0.016,0.013-0.028,0.027-0.043,0.041c-0.055,0.052-0.092,0.109-0.111,0.177c-0.031,0.103-0.026,0.309,0.173,0.483
				c0.648,0.578,3.825,3.366,4.367,3.98c0.513,0.581,0.522,0.897,0.322,1.101c-0.286,0.293-0.74,0.018-0.866-0.062
				c0.013,0.007,0.021,0.012,0.034,0.019c-0.109-0.064-0.231-0.151-0.372-0.266c-1.549-1.258-5.008-3.48-5.816-3.885
				c-0.885-0.444-1.205-0.586-1.997-0.16c-0.03,0.017-0.06,0.035-0.088,0.053c-0.321,0.21-0.436,0.405-0.466,0.624
				c-0.021,0.188,0.037,0.479,0.438,0.752c3.361,2.274,4.084,2.655,6.75,4.672c0.204,0.155,0.677,0.592,0.252,1.016
				c-0.078,0.078-0.225,0.13-0.428,0.111c-0.029-0.002-0.057-0.007-0.088-0.012c-0.017-0.002-0.03-0.003-0.046-0.007
				c0.015,0.003,0.024,0.003,0.039,0.005c-0.249-0.044-0.538-0.2-0.813-0.365c-1.462-0.874-4.004-2.189-5.347-2.705
				c-0.928-0.354-1.5,0.007-1.852,0.472c-0.268,0.374-0.341,0.82-0.273,1.105c0.086,0.355,0.441,0.581,0.684,0.723
				c1.889,1.098,3.348,1.744,5.205,2.893c0.588,0.355,0.687,0.407,1.259,0.787c0.655,0.44,1.661,1.078,1.909,1.904
				c-0.002-0.003-0.002-0.005-0.002-0.008c0.056,0.143,0.091,0.394,0.088,0.543c-0.004,0.376-0.111,0.746-0.627,1.098
				c-0.908,0.617-2.521,0.437-3.939,0.342c-0.299-0.021-0.813-0.057-1.122-0.058c-0.739-0.004-1.136,0.183-1.358,0.527
				c-0.201,0.313-0.22,0.854-0.22,1.12c0,0.027,0.009,0.152,0.024,0.272c0.022,0.171,0.08,0.271,0.111,0.318
				c0.006,0.008,0.014,0.019,0.019,0.025c0.333,0.425,0.989,0.559,1.729,0.644c1.32,0.077,2.71,0.103,4.317,0.134
				c3.767,0.073,8.036-0.158,9.711-2.446C146.063,27.566,145.984,23.911,145.115,21.379z"/>
		</g>
	</g>
</g>
<rect x="6.625" y="34.995" fill="none" width="155.605" height="14.255"/>
<g enable-background="new    ">
	<path d="M7.371,40.784v-5.79h1.716c0.778,0,1.612,0.289,1.612,1.652c0,1.314-1.026,1.587-1.62,1.587h-0.97v2.551H7.371z
		 M8.109,37.592h0.81c0.305,0,1.027-0.08,1.027-0.986c0-0.883-0.658-0.971-0.818-0.971H8.109V37.592z"/>
	<path d="M12.455,38.122v2.662h-0.738v-5.79h1.998c1.026,0,1.387,0.722,1.387,1.443c0,0.682-0.377,1.203-1.059,1.324v0.015
		c0.666,0.105,0.907,0.33,0.947,1.493c0.008,0.247,0.088,1.154,0.2,1.515h-0.77c-0.208-0.401-0.161-1.154-0.225-1.924
		c-0.056-0.706-0.626-0.738-0.874-0.738H12.455z M12.455,37.48h1.106c0.529,0,0.786-0.457,0.786-0.962
		c0-0.418-0.208-0.883-0.778-0.883h-1.114V37.48z"/>
	<path d="M16.167,38.667v-1.901c0-1.153,0.593-1.892,1.82-1.892c1.228,0,1.821,0.738,1.821,1.892v1.901
		c0,1.604-0.594,2.238-1.821,2.238C16.76,40.905,16.167,40.271,16.167,38.667z M19.054,38.699v-1.956
		c0-1.212-0.834-1.252-1.067-1.252c-0.232,0-1.066,0.04-1.066,1.252v1.956c0,1.268,0.369,1.588,1.066,1.588
		C18.685,40.287,19.054,39.966,19.054,38.699z"/>
	<path d="M21.105,34.994h1.78c0.738,0,1.268,0.265,1.556,0.883c0.233,0.487,0.257,1.644,0.257,1.828
		c0,1.235-0.112,1.948-0.353,2.334c-0.313,0.497-0.898,0.745-1.909,0.745h-1.332V34.994z M21.843,40.142h0.698
		c1.027,0,1.403-0.384,1.403-1.732v-1.17c0-1.172-0.36-1.604-1.13-1.604h-0.971V40.142z"/>
	<path d="M25.964,34.994h0.738v3.705c0,1.268,0.385,1.588,1.083,1.588c0.698,0,1.083-0.32,1.083-1.588v-3.705h0.738v3.673
		c0,1.604-0.594,2.238-1.821,2.238c-1.228,0-1.821-0.634-1.821-2.238V34.994z"/>
	<path d="M33.438,36.589c0.007-0.328-0.017-0.657-0.169-0.842c-0.152-0.184-0.497-0.249-0.649-0.249c-0.61,0-0.85,0.369-0.875,0.449
		c-0.024,0.064-0.168,0.209-0.168,1.204v1.547c0,1.42,0.465,1.588,1.035,1.588c0.225,0,0.906-0.08,0.914-1.211h0.762
		c0.033,1.829-1.259,1.829-1.636,1.829c-0.722,0-1.829-0.048-1.829-2.293v-1.637c0-1.637,0.722-2.102,1.861-2.102
		c1.147,0,1.588,0.594,1.516,1.716H33.438z"/>
	<path d="M38.593,34.994v0.642h-1.524v5.148h-0.738v-5.148h-1.524v-0.642H38.593z"/>
	<path d="M41.134,40.784v-5.79h0.738v5.148h2.125v0.642H41.134z"/>
	<path d="M45.527,40.784H44.79v-5.79h0.738V40.784z"/>
	<path d="M46.866,40.784v-5.79h2.872v0.642h-2.133v1.86h2.021v0.642h-2.021v2.646H46.866z"/>
	<path d="M50.482,40.784v-5.79h2.983v0.642H51.22v1.86h2.085v0.642H51.22v2.005h2.294v0.642H50.482z"/>
	<path d="M57.042,36.589c0.008-0.328-0.016-0.657-0.169-0.842c-0.152-0.184-0.497-0.249-0.649-0.249
		c-0.609,0-0.85,0.369-0.875,0.449c-0.024,0.064-0.168,0.209-0.168,1.204v1.547c0,1.42,0.465,1.588,1.034,1.588
		c0.225,0,0.907-0.08,0.914-1.211h0.763c0.032,1.829-1.259,1.829-1.636,1.829c-0.722,0-1.829-0.048-1.829-2.293v-1.637
		c0-1.637,0.722-2.102,1.86-2.102c1.147,0,1.588,0.594,1.516,1.716H57.042z"/>
	<path d="M61.492,34.994h0.746l-1.58,3.585v2.205h-0.738v-2.205l-1.556-3.585h0.826l1.13,2.799L61.492,34.994z"/>
	<path d="M65.509,36.589c0.008-0.328-0.016-0.657-0.169-0.842c-0.152-0.184-0.497-0.249-0.649-0.249
		c-0.609,0-0.85,0.369-0.874,0.449c-0.024,0.064-0.169,0.209-0.169,1.204v1.547c0,1.42,0.465,1.588,1.035,1.588
		c0.225,0,0.906-0.08,0.915-1.211h0.762c0.032,1.829-1.259,1.829-1.636,1.829c-0.722,0-1.829-0.048-1.829-2.293v-1.637
		c0-1.637,0.722-2.102,1.861-2.102c1.147,0,1.588,0.594,1.516,1.716H65.509z"/>
	<path d="M67.416,40.784v-5.79h0.738v5.148h2.125v0.642H67.416z"/>
	<path d="M70.976,40.784v-5.79h2.984v0.642h-2.246v1.86h2.085v0.642h-2.085v2.005h2.294v0.642H70.976z"/>
	<path d="M77.462,40.784h-0.69v-5.79h1.195l1.46,4.86h0.016l1.476-4.86h1.219v5.79H81.4v-5.148h-0.016l-1.62,5.148h-0.697
		l-1.588-5.148h-0.016V40.784z"/>
	<path d="M84.75,34.994h0.938l1.885,5.79h-0.826l-0.417-1.379h-2.238l-0.433,1.379h-0.745L84.75,34.994z M85.2,35.675h-0.016
		l-0.906,3.088h1.853L85.2,35.675z"/>
	<path d="M92.353,34.994v5.79h-1.011l-2.286-5.021H89.04v5.021h-0.657v-5.79h1.042l2.253,4.956h0.016v-4.956H92.353z"/>
	<path d="M94.998,34.994h0.938l1.885,5.79h-0.826l-0.416-1.379h-2.237l-0.434,1.379H93.16L94.998,34.994z M95.446,35.675h-0.016
		l-0.906,3.088h1.852L95.446,35.675z"/>
	<path d="M101.364,36.541c0-0.681-0.28-1.05-1.026-1.05c-0.233,0-1.066,0.04-1.066,1.252v1.956c0,1.268,0.369,1.588,1.066,1.588
		c0.529,0,0.883-0.145,1.033-0.257v-1.731h-1.066v-0.642h1.806v2.813c-0.474,0.258-1.026,0.435-1.772,0.435
		c-1.228,0-1.821-0.634-1.821-2.238v-1.901c0-1.153,0.594-1.892,1.821-1.892c1.251,0,1.845,0.457,1.796,1.667H101.364z"/>
	<path d="M103.487,40.784v-5.79h2.984v0.642h-2.246v1.86h2.084v0.642h-2.084v2.005h2.294v0.642H103.487z"/>
	<path d="M108.218,38.122v2.662h-0.737v-5.79h1.997c1.025,0,1.387,0.722,1.387,1.443c0,0.682-0.376,1.203-1.059,1.324v0.015
		c0.666,0.105,0.907,0.33,0.947,1.493c0.008,0.247,0.088,1.154,0.2,1.515h-0.771c-0.208-0.401-0.16-1.154-0.225-1.924
		c-0.056-0.706-0.624-0.738-0.873-0.738H108.218z M108.218,37.48h1.107c0.528,0,0.786-0.457,0.786-0.962
		c0-0.418-0.209-0.883-0.777-0.883h-1.116V37.48z"/>
</g>
</svg>
